<svg width="45" height="45" viewBox="0 0 45 45" fill="none" xmlns="http://www.w3.org/2000/svg">
<mask id="mask0_2381_291" style="mask-type:luminance" maskUnits="userSpaceOnUse" x="0" y="0" width="45" height="45">
<path d="M22.5 45C34.9264 45 45 34.9264 45 22.5C45 10.0736 34.9264 0 22.5 0C10.0736 0 0 10.0736 0 22.5C0 34.9264 10.0736 45 22.5 45Z" fill="white"/>
</mask>
<g mask="url(#mask0_2381_291)">
<path d="M0 0L0.703125 1.93359L0 3.95508V5.97656L2.8125 10.7227L0 15.4688V18.2812L2.8125 22.5L0 26.7188V29.5312L2.8125 34.2773L0 39.0234V45L1.93359 44.2969L3.95508 45H5.97656L10.7227 42.1875L15.4688 45H18.2812L22.5 42.1875L26.7188 45H29.5312L34.2773 42.1875L39.0234 45H45L44.2969 43.0664L45 41.0449V39.0234L42.1875 34.2773L45 29.5312V26.7188L42.1875 22.5L45 18.2812V15.4688L42.1875 10.7227L45 5.97656V0L43.0664 0.703125L41.0449 0H39.0234L34.2773 2.8125L29.5312 0H26.7188L22.5 2.8125L18.2812 0H15.4688L10.7227 2.8125L5.97656 0H0Z" fill="#EEEEEE"/>
<path d="M29.5312 0V9.49219L39.0234 0H29.5312ZM45 5.97656L35.5078 15.4688H45V5.97656ZM0 15.4688H9.49219L0 5.97656V15.4688ZM5.97656 0L15.4688 9.49219V0H5.97656ZM15.4688 45V35.5078L5.97656 45H15.4688ZM0 39.0234L9.49219 29.5312H0V39.0234ZM45 29.5312H35.5078L45 39.0234V29.5312ZM39.0234 45L29.5312 35.5078V45H39.0234Z" fill="#0052B4"/>
<path d="M0 0V3.95508L11.5137 15.4688H15.4688L0 0ZM18.2812 0V18.2812H0V26.7188H18.2812V45H26.7188V26.7188H45V18.2812H26.7188V0H18.2812ZM41.0449 0L29.5312 11.5137V15.4688L45 0H41.0449ZM15.4688 29.5312L0 45H3.95508L15.4688 33.4863V29.5312ZM29.5312 29.5312L45 45V41.0449L33.4863 29.5312H29.5312Z" fill="#D80027"/>
</g>
</svg>
