<svg width="45" height="45" viewBox="0 0 45 45" fill="none" xmlns="http://www.w3.org/2000/svg">
<g clip-path="url(#clip0_4691_16)">
<mask id="mask0_4691_16" style="mask-type:luminance" maskUnits="userSpaceOnUse" x="0" y="0" width="45" height="45">
<path d="M22.5 45C34.9264 45 45 34.9264 45 22.5C45 10.0736 34.9264 0 22.5 0C10.0736 0 0 10.0736 0 22.5C0 34.9264 10.0736 45 22.5 45Z" fill="white"/>
</mask>
<g mask="url(#mask0_4691_16)">
<path d="M0 11.25L22.5 8.4375L45 11.25V33.75L22.5 36.5625L0 33.75V11.25Z" fill="#FFDA44"/>
<path d="M0 0H45V11.25H0V0ZM0 33.75H45V45H0V33.75Z" fill="#D80027"/>
<path d="M12.6562 26.7188H11.25V19.6875H12.6562V26.7188ZM23.9062 26.7188H25.3125V19.6875H23.9062V26.7188Z" fill="#EEEEEE"/>
<path d="M18.2812 28.8281C20.6112 28.8281 22.5 27.5689 22.5 26.0156C22.5 24.4623 20.6112 23.2031 18.2812 23.2031C15.9513 23.2031 14.0625 24.4623 14.0625 26.0156C14.0625 27.5689 15.9513 28.8281 18.2812 28.8281Z" fill="#EEEEEE"/>
<path d="M12.6562 17.5781C12.6562 17.1898 12.3415 16.875 11.9531 16.875C11.5648 16.875 11.25 17.1898 11.25 17.5781V18.2812C11.25 18.6696 11.5648 18.9844 11.9531 18.9844C12.3415 18.9844 12.6562 18.6696 12.6562 18.2812V17.5781Z" fill="#D80027"/>
<path d="M25.3125 17.5781C25.3125 17.1898 24.9977 16.875 24.6094 16.875C24.221 16.875 23.9062 17.1898 23.9062 17.5781V18.2812C23.9062 18.6696 24.221 18.9844 24.6094 18.9844C24.9977 18.9844 25.3125 18.6696 25.3125 18.2812V17.5781Z" fill="#D80027"/>
<path d="M18.2812 23.9062V26.0156C18.2813 26.5751 18.5035 27.1116 18.8991 27.5072C19.2947 27.9028 19.8312 28.125 20.3906 28.125C20.9501 28.125 21.4866 27.9028 21.8822 27.5072C22.2778 27.1116 22.5 26.5751 22.5 26.0156V23.9062H20.3906H18.2812Z" fill="#D80027"/>
<path d="M12.6562 18.2812H11.25C10.8617 18.2812 10.5469 18.596 10.5469 18.9844C10.5469 19.3727 10.8617 19.6875 11.25 19.6875H12.6562C13.0446 19.6875 13.3594 19.3727 13.3594 18.9844C13.3594 18.596 13.0446 18.2812 12.6562 18.2812Z" fill="#FF9811"/>
<path d="M25.3125 18.2812H23.9062C23.5179 18.2812 23.2031 18.596 23.2031 18.9844C23.2031 19.3727 23.5179 19.6875 23.9062 19.6875H25.3125C25.7008 19.6875 26.0156 19.3727 26.0156 18.9844C26.0156 18.596 25.7008 18.2812 25.3125 18.2812Z" fill="#FF9811"/>
<path d="M12.6562 26.7188H11.25C10.8617 26.7188 10.5469 27.0335 10.5469 27.4219C10.5469 27.8102 10.8617 28.125 11.25 28.125H12.6562C13.0446 28.125 13.3594 27.8102 13.3594 27.4219C13.3594 27.0335 13.0446 26.7188 12.6562 26.7188Z" fill="#FF9811"/>
<path d="M25.3125 26.7188H23.9062C23.5179 26.7188 23.2031 27.0335 23.2031 27.4219C23.2031 27.8102 23.5179 28.125 23.9062 28.125H25.3125C25.7008 28.125 26.0156 27.8102 26.0156 27.4219C26.0156 27.0335 25.7008 26.7188 25.3125 26.7188Z" fill="#FF9811"/>
<path d="M14.0625 23.9062V26.0156C14.0625 26.7188 14.4141 27.2461 14.8535 27.6855L15.293 27.1582L15.7324 28.0371C16.0211 28.1079 16.3226 28.1079 16.6113 28.0371L17.0508 27.1582L17.4902 27.6855C18.0176 27.2461 18.2812 26.7188 18.2812 26.0156V23.9062H17.4902L17.0508 24.6094L16.6113 23.9062H15.7324L15.293 24.6094L14.8535 23.9062H14.0625Z" fill="#FF9811"/>
<path d="M10.7227 21.7969C10.6294 21.7969 10.54 21.8339 10.4741 21.8998C10.4081 21.9658 10.3711 22.0552 10.3711 22.1484C10.3711 22.2417 10.4081 22.3311 10.4741 22.397C10.54 22.463 10.6294 22.5 10.7227 22.5H25.8398C25.9331 22.5 26.0225 22.463 26.0884 22.397C26.1544 22.3311 26.1914 22.2417 26.1914 22.1484C26.1914 22.0552 26.1544 21.9658 26.0884 21.8998C26.0225 21.8339 25.9331 21.7969 25.8398 21.7969H10.7227ZM10.7227 23.9062C10.6294 23.9062 10.54 23.9433 10.4741 24.0092C10.4081 24.0752 10.3711 24.1646 10.3711 24.2578C10.3711 24.3511 10.4081 24.4405 10.4741 24.5064C10.54 24.5723 10.6294 24.6094 10.7227 24.6094H13.1836C13.2768 24.6094 13.3663 24.5723 13.4322 24.5064C13.4981 24.4405 13.5352 24.3511 13.5352 24.2578C13.5352 24.1646 13.4981 24.0752 13.4322 24.0092C13.3663 23.9433 13.2768 23.9062 13.1836 23.9062H10.7227ZM23.3789 23.9062C23.2857 23.9062 23.1962 23.9433 23.1303 24.0092C23.0644 24.0752 23.0273 24.1646 23.0273 24.2578C23.0273 24.3511 23.0644 24.4405 23.1303 24.5064C23.1962 24.5723 23.2857 24.6094 23.3789 24.6094H25.8398C25.9331 24.6094 26.0225 24.5723 26.0884 24.5064C26.1544 24.4405 26.1914 24.3511 26.1914 24.2578C26.1914 24.1646 26.1544 24.0752 26.0884 24.0092C26.0225 23.9433 25.9331 23.9062 25.8398 23.9062H23.3789Z" fill="#D80027"/>
<path d="M17.2266 14.7656C16.6113 14.7656 16.084 15.2051 15.9082 15.7324L15.4688 15.6445C14.6777 15.6445 14.0625 16.2598 14.0625 17.0508C14.0625 17.8418 14.6777 18.457 15.4688 18.457C16.084 18.457 16.6113 18.1055 16.7871 17.4902C17.0434 17.5827 17.3211 17.5987 17.5864 17.5363C17.8516 17.4739 18.093 17.3357 18.2812 17.1387C18.4695 17.3357 18.7109 17.4739 18.9761 17.5363C19.2414 17.5987 19.5191 17.5827 19.7754 17.4902C19.8607 17.7564 20.0234 17.9912 20.2427 18.1645C20.462 18.3378 20.728 18.4419 21.0067 18.4633C21.2854 18.4848 21.5642 18.4227 21.8074 18.2849C22.0507 18.1472 22.2474 17.9401 22.3724 17.6901C22.4974 17.4401 22.5451 17.1585 22.5093 16.8812C22.4735 16.604 22.3559 16.3437 22.1715 16.1336C21.9872 15.9235 21.7443 15.7731 21.4741 15.7017C21.2038 15.6302 20.9184 15.6409 20.6543 15.7324C20.5695 15.5046 20.4271 15.3026 20.241 15.1461C20.0549 14.9897 19.8314 14.8842 19.5924 14.84C19.3533 14.7957 19.1068 14.8142 18.8771 14.8936C18.6473 14.973 18.442 15.1106 18.2812 15.293C18.0176 14.9414 17.666 14.7656 17.2266 14.7656ZM17.2266 15.4688C17.666 15.4688 17.9297 15.8203 17.9297 16.1719C17.9297 16.6113 17.666 16.875 17.2266 16.875C16.875 16.875 16.5234 16.6113 16.5234 16.1719C16.5234 15.8203 16.875 15.4688 17.2266 15.4688ZM19.3359 15.4688C19.7754 15.4688 20.0391 15.8203 20.0391 16.1719C20.0391 16.6113 19.7754 16.875 19.3359 16.875C18.9844 16.875 18.6328 16.6113 18.6328 16.1719C18.6328 15.8203 18.9844 15.4688 19.3359 15.4688ZM15.4688 16.3477L15.8203 16.4355L16.1719 17.1387C16.1719 17.4902 15.8203 17.7539 15.4688 17.7539C15.1172 17.7539 14.7656 17.4902 14.7656 17.0508C14.7656 16.6992 15.1172 16.3477 15.4688 16.3477ZM21.0938 16.3477C21.5332 16.3477 21.7969 16.6992 21.7969 17.0508C21.7969 17.4902 21.5332 17.7539 21.0938 17.7539C20.7422 17.7539 20.3906 17.4902 20.3906 17.1387L20.7422 16.4355L21.0938 16.3477Z" fill="#EEEEEE"/>
<path d="M17.5781 14.0625H18.9844V16.875H17.5781V14.0625Z" fill="#FF9811"/>
<path d="M18.2812 19.6875H22.5V23.9062H18.2812V19.6875Z" fill="#EEEEEE"/>
<path d="M21.7969 18.2812L21.0938 18.9844H15.4688L14.7656 18.2812C14.7656 17.1387 16.3477 16.1719 18.2812 16.1719C20.2148 16.1719 21.7969 17.1387 21.7969 18.2812ZM14.0625 19.6875H18.2812V23.9062H14.0625V19.6875Z" fill="#D80027"/>
<path d="M21.2695 21.2695C21.2695 20.7841 20.876 20.3906 20.3906 20.3906C19.9052 20.3906 19.5117 20.7841 19.5117 21.2695V22.3242C19.5117 22.8096 19.9052 23.2031 20.3906 23.2031C20.876 23.2031 21.2695 22.8096 21.2695 22.3242V21.2695Z" fill="#D80027"/>
<path d="M14.7656 20.3906V21.0938H15.4688V22.5H14.7656V23.2031H17.5781V22.5H16.875V21.0938H17.5781V20.3906H14.7656ZM15.4688 18.9844H21.0938V19.6875H15.4688V18.9844Z" fill="#FF9811"/>
<path d="M16.3477 18.2812C16.6389 18.2812 16.875 18.0452 16.875 17.7539C16.875 17.4627 16.6389 17.2266 16.3477 17.2266C16.0564 17.2266 15.8203 17.4627 15.8203 17.7539C15.8203 18.0452 16.0564 18.2812 16.3477 18.2812Z" fill="#FFDA44"/>
<path d="M18.2812 18.2812C18.5725 18.2812 18.8086 18.0452 18.8086 17.7539C18.8086 17.4627 18.5725 17.2266 18.2812 17.2266C17.99 17.2266 17.7539 17.4627 17.7539 17.7539C17.7539 18.0452 17.99 18.2812 18.2812 18.2812Z" fill="#FFDA44"/>
<path d="M20.2148 18.2812C20.5061 18.2812 20.7422 18.0452 20.7422 17.7539C20.7422 17.4627 20.5061 17.2266 20.2148 17.2266C19.9236 17.2266 19.6875 17.4627 19.6875 17.7539C19.6875 18.0452 19.9236 18.2812 20.2148 18.2812Z" fill="#FFDA44"/>
<path d="M14.8535 23.9062V27.6855C15.1161 27.8678 15.4166 27.988 15.7324 28.0371V23.9062H14.8535ZM16.6113 23.9062V28.0371C16.9271 27.988 17.2277 27.8678 17.4902 27.6855V23.9062H16.6113Z" fill="#D80027"/>
<path d="M18.2812 25.3125C19.0579 25.3125 19.6875 24.6829 19.6875 23.9062C19.6875 23.1296 19.0579 22.5 18.2812 22.5C17.5046 22.5 16.875 23.1296 16.875 23.9062C16.875 24.6829 17.5046 25.3125 18.2812 25.3125Z" fill="#338AF3"/>
<path d="M25.3125 28.125H23.9062C23.5179 28.125 23.2031 28.4398 23.2031 28.8281C23.2031 29.2165 23.5179 29.5312 23.9062 29.5312H25.3125C25.7008 29.5312 26.0156 29.2165 26.0156 28.8281C26.0156 28.4398 25.7008 28.125 25.3125 28.125Z" fill="#338AF3"/>
<path d="M12.6562 28.125H11.25C10.8617 28.125 10.5469 28.4398 10.5469 28.8281C10.5469 29.2165 10.8617 29.5312 11.25 29.5312H12.6562C13.0446 29.5312 13.3594 29.2165 13.3594 28.8281C13.3594 28.4398 13.0446 28.125 12.6562 28.125Z" fill="#338AF3"/>
</g>
</g>
<defs>
<clipPath id="clip0_4691_16">
<rect width="45" height="45" fill="white"/>
</clipPath>
</defs>
</svg>
